
<svg version="1.1" xmlns="http://www.w3.org/2000/svg" xmlns:xlink="http://www.w3.org/1999/xlink" x="0px" y="0px"
	 viewBox="0 0 425.2 425.2" enable-background="new 0 0 425.2 425.2" xml:space="preserve">
<path fill="#FFFFFF" stroke="#FFFFFF" stroke-width="0.1191" stroke-miterlimit="3.8636" d="M301.03,120.73
	c-109.53,49.17-57,113.04-57,113.04c-78.54-9.01-55.78-104.17-55.78-104.17L301.03,120.73L301.03,120.73z"/>
<polygon fill="#FFFFFF" stroke="#FFFFFF" stroke-width="0.1191" stroke-miterlimit="3.8636" points="111.08,233.72 123.74,233.72 
	123.74,295.94 111.08,280.95 111.08,233.72 "/>
<polygon fill="#FFFFFF" stroke="#FFFFFF" stroke-width="0.1191" stroke-miterlimit="3.8636" points="147.13,233.72 159.79,233.72 
	159.79,324.14 147.13,316.06 147.13,233.72 "/>
<polygon fill="#FFFFFF" stroke="#FFFFFF" stroke-width="0.1191" stroke-miterlimit="3.8636" points="108.75,222.22 126.15,222.22 
	126.15,226.81 123.74,231.47 111.08,231.47 108.75,226.81 108.75,222.22 "/>
<polygon fill="#FFFFFF" stroke="#FFFFFF" stroke-width="0.1191" stroke-miterlimit="3.8636" points="144.8,222.22 162.2,222.22 
	162.2,226.81 159.79,231.47 147.13,231.47 144.8,226.81 144.8,222.22 "/>
<path fill="#FFFFFF" d="M132.06,194.83c0,1.92,1.56,3.47,3.48,3.47c1.92,0,3.48-1.56,3.48-3.47c0-1.92-1.56-3.48-3.48-3.48
	C133.61,191.35,132.06,192.91,132.06,194.83L132.06,194.83z M119.3,194.83c0,1.92,1.55,3.47,3.47,3.47c1.92,0,3.48-1.56,3.48-3.47
	c0-1.92-1.56-3.48-3.48-3.48C120.86,191.35,119.3,192.91,119.3,194.83L119.3,194.83z M144.81,194.83c0,1.92,1.55,3.47,3.47,3.47
	c1.92,0,3.48-1.56,3.48-3.47c0-1.92-1.56-3.48-3.48-3.48C146.37,191.35,144.81,192.91,144.81,194.83L144.81,194.83z M116.99,219.89
	h-5.83v-30.14h48.71v30.14h-5.75c-2.41-17.4-18.57-18.1-18.57-18.1C118.15,202.88,116.99,219.89,116.99,219.89L116.99,219.89z"/>
<path fill="none" stroke="#FFFFFF" stroke-width="0.1191" stroke-miterlimit="3.8636" d="M132.06,194.83c0,1.92,1.56,3.47,3.48,3.47
	c1.92,0,3.48-1.56,3.48-3.47c0-1.92-1.56-3.48-3.48-3.48C133.61,191.35,132.06,192.91,132.06,194.83L132.06,194.83z"/>
<path fill="none" stroke="#FFFFFF" stroke-width="0.1191" stroke-miterlimit="3.8636" d="M119.3,194.83c0,1.92,1.55,3.47,3.47,3.47
	c1.92,0,3.48-1.56,3.48-3.47c0-1.92-1.56-3.48-3.48-3.48C120.86,191.35,119.3,192.91,119.3,194.83L119.3,194.83z"/>
<path fill="none" stroke="#FFFFFF" stroke-width="0.1191" stroke-miterlimit="3.8636" d="M144.81,194.83c0,1.92,1.55,3.47,3.47,3.47
	c1.92,0,3.48-1.56,3.48-3.47c0-1.92-1.56-3.48-3.48-3.48C146.37,191.35,144.81,192.91,144.81,194.83L144.81,194.83z"/>
<path fill="none" stroke="#FFFFFF" stroke-width="0.1191" stroke-miterlimit="3.8636" d="M116.99,219.89h-5.83v-30.14h48.71v30.14
	h-5.75c-2.41-17.4-18.57-18.1-18.57-18.1C118.15,202.88,116.99,219.89,116.99,219.89L116.99,219.89z"/>
<path fill="#FFFFFF" stroke="#FFFFFF" stroke-width="0.1191" stroke-miterlimit="3.8636" d="M123.9,219.89h-3.42
	c1.17-15.07,15.07-15.07,15.07-15.07c14.99,1.08,14.99,15.07,14.99,15.07h-3.42c-1.09-11.58-11.57-11.58-11.57-11.58
	C123.9,208.32,123.9,219.89,123.9,219.89L123.9,219.89z"/>
<polygon fill="#FFFFFF" stroke="#FFFFFF" stroke-width="0.1191" stroke-miterlimit="3.8636" points="108.91,185.09 162.12,185.09 
	162.12,187.42 108.91,187.42 108.91,185.09 "/>
<polygon fill="#FFFFFF" stroke="#FFFFFF" stroke-width="0.1191" stroke-miterlimit="3.8636" points="108.91,182.76 108.91,160.78 
	120.02,160.78 120.02,171.19 129.73,171.19 129.73,160.78 141.38,160.78 141.38,171.19 151.09,171.19 151.09,160.78 162.2,160.78 
	162.2,182.76 108.91,182.76 "/>
<polygon fill="#FFFFFF" stroke="#FFFFFF" stroke-width="0.1191" stroke-miterlimit="3.8636" points="106.19,176.62 95.47,176.62 
	92.21,190.92 108.13,190.92 108.13,188.9 106.19,188.9 106.19,176.62 "/>
<polygon fill="#FFFFFF" stroke="#FFFFFF" stroke-width="0.1191" stroke-miterlimit="3.8636" points="108.13,193.01 91.35,193.01 
	90.19,204.82 108.13,204.82 108.13,193.01 "/>
<polygon fill="#FFFFFF" stroke="#FFFFFF" stroke-width="0.1191" stroke-miterlimit="3.8636" points="90.58,206.92 108.13,206.92 
	108.13,210.18 90.58,210.18 90.58,206.92 "/>
<polygon fill="#FFFFFF" stroke="#FFFFFF" stroke-width="0.1191" stroke-miterlimit="3.8636" points="89.72,212.2 108.13,212.2 
	108.13,213.68 89.72,213.68 89.72,212.2 "/>
<polygon fill="#FFFFFF" stroke="#FFFFFF" stroke-width="0.1191" stroke-miterlimit="3.8636" points="108.13,215.93 90.58,215.93 
	91.35,227.35 106.34,227.35 105.8,225.79 105.8,219.81 108.13,219.81 108.13,215.93 "/>
<polygon fill="#FFFFFF" stroke="#FFFFFF" stroke-width="0.1191" stroke-miterlimit="3.8636" points="91.35,229.84 93.84,242.88 
	108.6,242.88 108.6,232.24 107.51,229.84 91.35,229.84 "/>
<polygon fill="#FFFFFF" stroke="#FFFFFF" stroke-width="0.1191" stroke-miterlimit="3.8636" points="108.6,245.37 95.47,245.37 
	99.59,257.65 108.6,257.65 108.6,245.37 "/>
<polygon fill="#FFFFFF" stroke="#FFFFFF" stroke-width="0.1191" stroke-miterlimit="3.8636" points="108.6,260.05 99.59,260.05 
	108.6,277.22 108.6,260.05 "/>
<path fill="#FFFFFF" stroke="#FFFFFF" stroke-width="0.1191" stroke-miterlimit="3.8636" d="M163.05,291.2
	c8.86-2.41,17.94-3.11,17.94-3.11c14.06,0.93,23.93,6.37,23.93,6.37c3.73,1.47,8.7,2.41,8.7,2.41c6.14,0.55,11.65-2.41,11.65-2.41
	c10.25-5.21,16.08-5.13,16.08-5.13c6.52,0.16,8.62,1.32,8.62,1.32l12.89,4.97c8.16,3.27,16.7-0.7,16.7-0.7
	c10.95-4.43,14.14-4.97,14.14-4.97c7.15-1.48,12.97,1.24,12.97,1.24l6.76,2.25l-8.7,8.7c-5.98-2.18-11.04-0.47-11.04-0.47
	c-6.14,1.63-14.14,4.97-14.14,4.97c-9.24,4.04-16.7,0.62-16.7,0.62l-12.89-4.97c-3.11-1.24-8.93-1.24-8.93-1.24
	c-6.53,0.23-15.77,4.97-15.77,4.97c-6.99,3.42-11.65,2.49-11.65,2.49c-3.73-0.31-8.7-2.49-8.7-2.49c-14.53-6.45-24-6.22-24-6.22
	c-10.02,0.78-17.87,3.11-17.87,3.11V291.2L163.05,291.2z"/>
<path fill="#FFFFFF" stroke="#FFFFFF" stroke-width="0.1191" stroke-miterlimit="3.8636" d="M163.05,309.77
	c12.82-3.27,17.87-3.11,17.87-3.11c12.43,0.38,22.52,5.75,24,6.21c3.5,1.55,7.46,2.25,8.7,2.41c5.9,0.86,11.65-2.48,11.65-2.48
	c12.51-5.75,16.08-4.9,16.08-4.9c5.28-0.15,8.62,1.25,8.62,1.25l12.89,4.89c8.39,3.34,16.7-0.62,16.7-0.62
	c11.19-4.19,11.65-4.43,14.14-4.9c2.26-0.54,5.52-0.85,5.52-0.85s-15.38,11.03-29.75,18.72c-0.7,0-1.86,0.31-6.6-1.24
	c0,0.08-12.89-4.97-12.89-4.97c-3.88-1.32-8.62-1.24-8.62-1.24c-5.83-0.08-16.08,4.97-16.08,4.97s-5.28,3.11-11.65,2.57
	c-0.78-0.23-2.49-0.23-8.7-2.49c-12.82-6.14-24-6.21-24-6.21c-6.52,0.08-17.87,3.03-17.87,3.03V309.77L163.05,309.77z"/>
<path fill="#FFFFFF" stroke="#FFFFFF" stroke-width="0.1191" stroke-miterlimit="3.8636" d="M166.24,326.78
	c8.39-2.02,14.68-2.25,14.68-2.25c11.96,0.23,22.29,5.67,24,6.14c5.21,2.25,8.7,2.48,8.7,2.48c6.14,0.78,11.65-2.48,11.65-2.48
	c11.96-5.67,15.69-4.66,16.08-4.89c5.75,0,8.62,1.24,8.62,1.24l8.54,3.81C209.12,347.44,166.24,326.78,166.24,326.78L166.24,326.78z
	"/>
<polygon fill="#FFFFFF" points="245.34,91.88 247.29,91.72 248.25,123.05 244.68,123.05 245.34,91.88 "/>
<path fill="#FFFFFF" stroke="#FFFFFF" stroke-width="0.5959" stroke-miterlimit="3.8636" d="M249.08,160.82
	c1.32,26.84,1.86,57.94,1.61,81.39c-4.82-0.08-8.76-0.61-8.76-0.61c0,0.08,0.21-5.21,0.21-5.21l5.38,0.43v-1.55l-5.44-7.93
	l1.55-59.84L249.08,160.82L249.08,160.82z"/>
<path fill="#FFFFFF" stroke="#FFFFFF" stroke-width="0.5959" stroke-miterlimit="3.8636" d="M171.83,190.37
	c0,48.24,18.79,76.05,18.79,76.05l-4.04-0.78c-22.14-32.7-19.65-75.27-19.65-75.27H171.83L171.83,190.37z"/>
<path fill="#FFFFFF" stroke="#FFFFFF" stroke-width="0.5959" stroke-miterlimit="3.8636" d="M333.72,185.48l4.97-0.08
	c0.78,47.54-30.3,83.51-30.3,83.51l-4.27-0.7C331.15,232.24,333.72,185.48,333.72,185.48L333.72,185.48z"/>
<path fill="#FFFFFF" stroke="#FFFFFF" stroke-width="0.5959" stroke-miterlimit="3.8636" d="M204.92,272.71
	c5.44,2.25,8.7,2.49,8.7,2.49c2.41,0.47,6.14-0.47,6.14-0.47c-18.25-4.51-27.11-8.62-27.11-8.62c0.24,1.47,0.7,2.4,0.7,2.4
	C196.84,269.3,204.92,272.71,204.92,272.71L204.92,272.71z"/>
<path fill="#FFFFFF" stroke="#FFFFFF" stroke-width="0.5959" stroke-miterlimit="3.8636" d="M191.95,263.16
	c12.35,5.36,32.54,10.1,32.54,10.1c1.25-0.54,1.79-0.78,1.79-0.78c5.13-2.49,10.1-3.96,10.8-4.2c-30.3-4.19-49.56-13.44-49.56-13.44
	L191.95,263.16L191.95,263.16z"/>
<path fill="none" stroke="#FFFFFF" stroke-width="1.6024" stroke-miterlimit="3.8636" d="M90.19,210.24
	c0-70.09,56.82-126.9,126.91-126.9c70.09,0,126.9,56.81,126.9,126.9s-56.81,126.91-126.9,126.91
	C147.01,337.15,90.19,280.33,90.19,210.24L90.19,210.24z"/>
<path fill="#FFFFFF" d="M242.76,94.89c0,0-50.88-17.03-58.58,7.42c-0.33,3.35-0.33,11.72-7.37,7.03
	c-5.02-5.69-12.27-3.32-12.27-3.32s-13.18,1.98-20.88,21.07c20.09-18.75,35.17-6.7,35.17-6.7s9.04,5.36,9.16-7.34
	c0.89-27.82,54.78-7.01,54.78-7.01V94.89L242.76,94.89z"/>
<path fill="#FFFFFF" d="M259.29,150.03c-0.39-0.54-0.06-1.46,0.75-2.04c0.81-0.59,1.78-0.62,2.17-0.08c0.4,0.54,0.06,1.46-0.75,2.04
	C260.65,150.54,259.68,150.57,259.29,150.03L259.29,150.03z"/>
<path fill="#FFFFFF" d="M264.09,150.63c0.39,0.54,0.06,1.46-0.75,2.05c-0.81,0.59-1.78,0.62-2.18,0.08
	c-0.39-0.54-0.06-1.46,0.75-2.04C262.72,150.12,263.7,150.09,264.09,150.63L264.09,150.63z"/>
<path fill="#FFFFFF" d="M265.97,153.35c0.4,0.54,0.06,1.46-0.75,2.04c-0.8,0.59-1.78,0.62-2.17,0.08c-0.39-0.54-0.06-1.46,0.75-2.04
	C264.6,152.85,265.58,152.81,265.97,153.35L265.97,153.35z"/>
<path fill="#FFFFFF" d="M267.85,156.08c0.39,0.54,0.06,1.46-0.75,2.04c-0.81,0.59-1.78,0.62-2.17,0.08
	c-0.39-0.54-0.06-1.46,0.75-2.04C266.48,155.57,267.46,155.53,267.85,156.08L267.85,156.08z"/>
<path fill="#FFFFFF" d="M269.73,158.8c0.39,0.54,0.06,1.46-0.75,2.05c-0.81,0.58-1.78,0.62-2.17,0.08
	c-0.39-0.54-0.06-1.46,0.75-2.04C268.36,158.29,269.34,158.26,269.73,158.8L269.73,158.8z"/>
<path fill="#FFFFFF" d="M271.62,161.52c0.39,0.54,0.06,1.46-0.75,2.04c-0.81,0.59-1.78,0.62-2.17,0.08
	c-0.39-0.54-0.06-1.46,0.75-2.04C270.24,161.02,271.22,160.98,271.62,161.52L271.62,161.52z"/>
<path fill="#FFFFFF" d="M273.49,164.24c0.4,0.55,0.06,1.46-0.75,2.05c-0.81,0.59-1.78,0.62-2.17,0.08
	c-0.39-0.54-0.06-1.46,0.75-2.04C272.13,163.74,273.1,163.7,273.49,164.24L273.49,164.24z"/>
<path fill="#FFFFFF" d="M275.38,166.97c0.39,0.54,0.06,1.46-0.75,2.04c-0.81,0.59-1.78,0.62-2.17,0.08
	c-0.4-0.54-0.06-1.46,0.75-2.04C274.01,166.46,274.98,166.43,275.38,166.97L275.38,166.97z"/>
<path fill="#FFFFFF" d="M277.26,169.69c0.39,0.54,0.06,1.46-0.75,2.04c-0.81,0.59-1.78,0.62-2.18,0.08
	c-0.39-0.54-0.06-1.46,0.75-2.05C275.89,169.18,276.86,169.15,277.26,169.69L277.26,169.69z"/>
<path fill="#FFFFFF" d="M279.14,172.42c0.39,0.54,0.06,1.46-0.75,2.04c-0.81,0.59-1.78,0.62-2.17,0.08
	c-0.4-0.54-0.06-1.46,0.75-2.04C277.77,171.91,278.74,171.87,279.14,172.42L279.14,172.42z"/>
<path fill="#FFFFFF" d="M281.02,175.14c0.4,0.54,0.06,1.46-0.75,2.04c-0.81,0.59-1.78,0.62-2.17,0.08
	c-0.39-0.54-0.06-1.46,0.75-2.05C279.65,174.63,280.62,174.6,281.02,175.14L281.02,175.14z"/>
<path fill="#FFFFFF" d="M282.9,177.86c0.39,0.54,0.06,1.46-0.75,2.04c-0.81,0.59-1.78,0.62-2.17,0.08c-0.4-0.54-0.06-1.46,0.75-2.04
	C281.53,177.36,282.51,177.32,282.9,177.86L282.9,177.86z"/>
<path fill="#FFFFFF" d="M284.78,180.58c0.4,0.54,0.06,1.46-0.75,2.04c-0.81,0.59-1.78,0.62-2.17,0.08
	c-0.39-0.54-0.06-1.46,0.75-2.04C283.41,180.08,284.39,180.04,284.78,180.58L284.78,180.58z"/>
<path fill="#FFFFFF" d="M286.66,183.31c0.39,0.54,0.06,1.46-0.75,2.04c-0.81,0.59-1.78,0.62-2.17,0.08
	c-0.39-0.54-0.06-1.46,0.75-2.05C285.29,182.8,286.27,182.76,286.66,183.31L286.66,183.31z"/>
<path fill="#FFFFFF" d="M288.54,186.03c0.4,0.54,0.06,1.45-0.75,2.04c-0.81,0.59-1.78,0.62-2.17,0.08c-0.4-0.54-0.06-1.46,0.75-2.04
	C287.17,185.52,288.15,185.49,288.54,186.03L288.54,186.03z"/>
<path fill="#FFFFFF" d="M290.42,188.75c0.39,0.54,0.06,1.46-0.75,2.05c-0.81,0.59-1.78,0.62-2.17,0.08
	c-0.4-0.54-0.06-1.46,0.75-2.04C289.06,188.25,290.03,188.21,290.42,188.75L290.42,188.75z"/>
<path fill="#FFFFFF" d="M292.3,191.48c0.4,0.54,0.06,1.46-0.75,2.05c-0.81,0.58-1.78,0.62-2.18,0.08c-0.39-0.54-0.06-1.46,0.75-2.04
	C290.94,190.97,291.91,190.94,292.3,191.48L292.3,191.48z"/>
<path fill="#FFFFFF" d="M294.18,194.2c0.39,0.54,0.06,1.46-0.75,2.04c-0.81,0.59-1.78,0.62-2.17,0.08
	c-0.39-0.54-0.06-1.46,0.75-2.04C292.82,193.69,293.79,193.66,294.18,194.2L294.18,194.2z"/>
<path fill="#FFFFFF" d="M296.07,196.92c0.4,0.54,0.06,1.46-0.75,2.05c-0.81,0.59-1.78,0.62-2.17,0.08c-0.4-0.54-0.06-1.46,0.75-2.04
	C294.7,196.42,295.67,196.38,296.07,196.92L296.07,196.92z"/>
<path fill="#FFFFFF" d="M297.95,199.65c0.4,0.54,0.06,1.46-0.75,2.04c-0.81,0.59-1.78,0.62-2.17,0.08
	c-0.39-0.54-0.06-1.46,0.75-2.04C296.58,199.14,297.55,199.1,297.95,199.65L297.95,199.65z"/>
<path fill="#FFFFFF" d="M299.83,202.37c0.4,0.54,0.06,1.46-0.75,2.04c-0.81,0.59-1.78,0.62-2.17,0.08
	c-0.39-0.54-0.06-1.46,0.75-2.04C298.46,201.86,299.43,201.83,299.83,202.37L299.83,202.37z"/>
<path fill="#FFFFFF" d="M301.71,205.09c0.39,0.54,0.06,1.46-0.75,2.04c-0.81,0.59-1.78,0.62-2.17,0.08
	c-0.4-0.54-0.06-1.46,0.75-2.04C300.34,204.59,301.32,204.55,301.71,205.09L301.71,205.09z"/>
<path fill="#FFFFFF" d="M303.59,207.82c0.4,0.54,0.06,1.46-0.75,2.05c-0.81,0.58-1.78,0.62-2.18,0.08c-0.4-0.54-0.06-1.46,0.75-2.04
	C302.22,207.31,303.2,207.27,303.59,207.82L303.59,207.82z"/>
<path fill="#FFFFFF" d="M305.47,210.54c0.39,0.54,0.06,1.46-0.75,2.05c-0.81,0.58-1.78,0.62-2.17,0.08
	c-0.4-0.54-0.06-1.46,0.74-2.04C304.1,210.03,305.08,210,305.47,210.54L305.47,210.54z"/>
<path fill="#FFFFFF" d="M307.35,213.26c0.39,0.54,0.06,1.46-0.75,2.04c-0.81,0.59-1.78,0.62-2.18,0.08
	c-0.39-0.54-0.06-1.46,0.75-2.04C305.98,212.76,306.96,212.72,307.35,213.26L307.35,213.26z"/>
<path fill="#FFFFFF" d="M309.23,215.99c0.39,0.54,0.06,1.46-0.75,2.04c-0.81,0.59-1.78,0.62-2.17,0.08
	c-0.39-0.54-0.06-1.46,0.75-2.05C307.86,215.48,308.84,215.44,309.23,215.99L309.23,215.99z"/>
<path fill="#FFFFFF" d="M311.11,218.71c0.39,0.54,0.06,1.46-0.75,2.04c-0.81,0.59-1.78,0.62-2.18,0.08
	c-0.39-0.54-0.06-1.46,0.75-2.05C309.75,218.2,310.72,218.17,311.11,218.71L311.11,218.71z"/>
<path fill="#FFFFFF" d="M312.99,221.43c0.39,0.54,0.06,1.46-0.75,2.04c-0.81,0.58-1.78,0.62-2.17,0.08
	c-0.39-0.54-0.06-1.46,0.75-2.04C311.63,220.93,312.6,220.89,312.99,221.43L312.99,221.43z"/>
<path fill="#FFFFFF" d="M311.95,226.28c-0.4-0.54-0.06-1.46,0.75-2.04c0.81-0.59,1.78-0.62,2.17-0.08c0.4,0.54,0.06,1.46-0.75,2.04
	C313.32,226.79,312.35,226.82,311.95,226.28L311.95,226.28z"/>
<path fill="#FFFFFF" d="M200.89,204.76c0.4-0.54,1.37-0.48,2.17,0.12c0.8,0.6,1.12,1.52,0.72,2.06c-0.41,0.54-1.38,0.48-2.17-0.12
	C200.81,206.22,200.49,205.3,200.89,204.76L200.89,204.76z"/>
<path fill="#FFFFFF" d="M201.69,209.38c-0.41,0.54-1.38,0.49-2.18-0.12c-0.79-0.6-1.11-1.52-0.71-2.06c0.4-0.54,1.38-0.48,2.17,0.12
	C201.77,207.92,202.09,208.84,201.69,209.38L201.69,209.38z"/>
<path fill="#FFFFFF" d="M199.59,211.82c-0.4,0.54-1.38,0.48-2.17-0.12c-0.8-0.6-1.11-1.52-0.71-2.06c0.4-0.54,1.37-0.48,2.17,0.12
	C199.68,210.36,200,211.28,199.59,211.82L199.59,211.82z"/>
<path fill="#FFFFFF" d="M197.5,214.26c-0.4,0.53-1.37,0.48-2.17-0.12c-0.8-0.6-1.12-1.52-0.71-2.06c0.4-0.53,1.37-0.48,2.17,0.12
	C197.59,212.8,197.91,213.72,197.5,214.26L197.5,214.26z"/>
<path fill="#FFFFFF" d="M195.41,216.69c-0.4,0.54-1.37,0.48-2.17-0.12c-0.8-0.6-1.12-1.52-0.71-2.06c0.4-0.54,1.38-0.48,2.17,0.12
	C195.5,215.24,195.81,216.16,195.41,216.69L195.41,216.69z"/>
<path fill="#FFFFFF" d="M193.32,219.13c-0.4,0.53-1.38,0.48-2.17-0.12c-0.8-0.6-1.12-1.52-0.71-2.06c0.4-0.53,1.38-0.48,2.18,0.12
	C193.4,217.68,193.72,218.6,193.32,219.13L193.32,219.13z"/>
<path fill="#FFFFFF" d="M191.22,221.57c-0.4,0.54-1.37,0.48-2.17-0.12c-0.8-0.6-1.12-1.52-0.71-2.06c0.4-0.53,1.37-0.48,2.17,0.12
	C191.31,220.12,191.63,221.04,191.22,221.57L191.22,221.57z"/>
<path fill="#FFFFFF" d="M189.13,224.01c-0.4,0.54-1.38,0.48-2.17-0.12c-0.8-0.6-1.11-1.52-0.71-2.06c0.4-0.54,1.38-0.48,2.17,0.12
	C189.21,222.56,189.54,223.48,189.13,224.01L189.13,224.01z"/>
<path fill="#FFFFFF" d="M184.15,224.27c0.4-0.53,1.38-0.48,2.17,0.12c0.8,0.6,1.12,1.52,0.71,2.06c-0.4,0.53-1.38,0.48-2.17-0.12
	C184.07,225.73,183.75,224.81,184.15,224.27L184.15,224.27z"/>
<path fill="#FFFFFF" d="M206.46,207.47c0.35-0.57,1.32-0.62,2.17-0.11c0.85,0.52,1.27,1.4,0.92,1.97c-0.34,0.57-1.32,0.62-2.17,0.11
	C206.53,208.93,206.12,208.05,206.46,207.47L206.46,207.47z"/>
<path fill="#FFFFFF" d="M207.73,211.98c-0.35,0.57-1.32,0.62-2.17,0.11c-0.86-0.52-1.27-1.4-0.92-1.97
	c0.34-0.58,1.32-0.63,2.17-0.11C207.67,210.52,208.08,211.4,207.73,211.98L207.73,211.98z"/>
<path fill="#FFFFFF" d="M205.91,214.62c-0.34,0.57-1.32,0.62-2.17,0.11c-0.86-0.51-1.27-1.4-0.93-1.97
	c0.35-0.57,1.32-0.62,2.18-0.11C205.84,213.16,206.25,214.04,205.91,214.62L205.91,214.62z"/>
<path fill="#FFFFFF" d="M204.08,217.26c-0.34,0.58-1.32,0.62-2.17,0.11c-0.86-0.51-1.27-1.4-0.92-1.97
	c0.34-0.58,1.32-0.62,2.17-0.11C204.01,215.81,204.43,216.69,204.08,217.26L204.08,217.26z"/>
<path fill="#FFFFFF" d="M202.26,219.91c-0.35,0.57-1.32,0.62-2.18,0.11c-0.86-0.51-1.27-1.4-0.92-1.97
	c0.35-0.57,1.32-0.62,2.17-0.11C202.19,218.45,202.6,219.33,202.26,219.91L202.26,219.91z"/>
<path fill="#FFFFFF" d="M200.43,222.55c-0.34,0.58-1.32,0.63-2.17,0.11c-0.86-0.51-1.27-1.4-0.93-1.97
	c0.35-0.57,1.32-0.62,2.17-0.11C200.36,221.1,200.77,221.98,200.43,222.55L200.43,222.55z"/>
<path fill="#FFFFFF" d="M198.6,225.2c-0.34,0.58-1.32,0.63-2.17,0.11c-0.85-0.52-1.27-1.4-0.92-1.97c0.35-0.57,1.32-0.62,2.17-0.11
	C198.54,223.74,198.95,224.62,198.6,225.2L198.6,225.2z"/>
<path fill="#FFFFFF" d="M196.78,227.84c-0.35,0.57-1.32,0.62-2.17,0.11c-0.86-0.51-1.27-1.4-0.92-1.97
	c0.35-0.58,1.32-0.62,2.17-0.11C196.71,226.39,197.12,227.27,196.78,227.84L196.78,227.84z"/>
<path fill="#FFFFFF" d="M191.85,228.63c0.35-0.57,1.32-0.62,2.18-0.11c0.85,0.52,1.27,1.4,0.92,1.97c-0.35,0.57-1.32,0.62-2.18,0.11
	C191.92,230.08,191.51,229.2,191.85,228.63L191.85,228.63z"/>
<path fill="#FFFFFF" d="M195.57,199.36c0.42-0.52,1.39-0.44,2.17,0.19c0.78,0.63,1.06,1.56,0.64,2.08
	c-0.42,0.52-1.39,0.43-2.17-0.19C195.43,200.81,195.15,199.88,195.57,199.36L195.57,199.36z"/>
<path fill="#FFFFFF" d="M196.2,204c-0.42,0.52-1.39,0.43-2.17-0.19c-0.77-0.63-1.06-1.56-0.64-2.08c0.42-0.52,1.39-0.43,2.17,0.19
	C196.34,202.55,196.62,203.48,196.2,204L196.2,204z"/>
<path fill="#FFFFFF" d="M194.03,206.36c-0.42,0.52-1.39,0.43-2.17-0.19c-0.78-0.63-1.06-1.56-0.64-2.08
	c0.42-0.52,1.39-0.43,2.17,0.19C194.16,204.91,194.45,205.84,194.03,206.36L194.03,206.36z"/>
<path fill="#FFFFFF" d="M191.85,208.73c-0.42,0.52-1.39,0.44-2.17-0.19c-0.78-0.63-1.06-1.56-0.64-2.08
	c0.42-0.52,1.39-0.43,2.17,0.19C191.99,207.28,192.27,208.21,191.85,208.73L191.85,208.73z"/>
<path fill="#FFFFFF" d="M189.67,211.09c-0.42,0.52-1.39,0.43-2.17-0.19c-0.77-0.63-1.06-1.56-0.64-2.08
	c0.42-0.52,1.39-0.43,2.17,0.2C189.81,209.64,190.1,210.57,189.67,211.09L189.67,211.09z"/>
<path fill="#FFFFFF" d="M187.5,213.46c-0.42,0.52-1.39,0.43-2.17-0.2c-0.77-0.63-1.06-1.56-0.64-2.08c0.42-0.52,1.39-0.43,2.17,0.19
	C187.63,212,187.92,212.93,187.5,213.46L187.5,213.46z"/>
<path fill="#FFFFFF" d="M185.32,215.82c-0.42,0.52-1.39,0.43-2.17-0.2c-0.77-0.63-1.06-1.56-0.64-2.08
	c0.42-0.52,1.39-0.44,2.17,0.19C185.46,214.37,185.74,215.3,185.32,215.82L185.32,215.82z"/>
<path fill="#FFFFFF" d="M183.15,218.19c-0.42,0.52-1.39,0.43-2.17-0.19c-0.77-0.63-1.06-1.56-0.64-2.08
	c0.42-0.52,1.39-0.43,2.17,0.19C183.28,216.73,183.57,217.66,183.15,218.19L183.15,218.19z"/>
<path fill="#FFFFFF" d="M178.16,218.28c0.42-0.52,1.39-0.44,2.17,0.19c0.78,0.63,1.07,1.56,0.64,2.08
	c-0.42,0.52-1.39,0.43-2.17-0.19C178.03,219.73,177.74,218.8,178.16,218.28L178.16,218.28z"/>
<path fill="#FFFFFF" d="M254.4,154.43c-0.28-0.57,0.22-1.36,1.11-1.76c0.89-0.4,1.85-0.26,2.13,0.32c0.28,0.57-0.22,1.36-1.11,1.76
	C255.64,155.15,254.68,155,254.4,154.43L254.4,154.43z"/>
<path fill="#FFFFFF" d="M259.07,156.07c0.28,0.57-0.22,1.36-1.12,1.76c-0.89,0.4-1.85,0.26-2.13-0.31
	c-0.28-0.58,0.22-1.36,1.11-1.76C257.83,155.36,258.78,155.5,259.07,156.07L259.07,156.07z"/>
<path fill="#FFFFFF" d="M260.48,159.15c0.29,0.57-0.22,1.36-1.11,1.76c-0.9,0.4-1.85,0.26-2.13-0.32c-0.28-0.57,0.22-1.36,1.12-1.76
	C259.25,158.44,260.2,158.58,260.48,159.15L260.48,159.15z"/>
<path fill="#FFFFFF" d="M261.9,162.23c0.28,0.57-0.22,1.36-1.11,1.76c-0.9,0.4-1.85,0.25-2.13-0.32c-0.28-0.57,0.22-1.36,1.11-1.76
	C260.66,161.52,261.62,161.66,261.9,162.23L261.9,162.23z"/>
<path fill="#FFFFFF" d="M263.31,165.31c0.28,0.57-0.22,1.36-1.11,1.76c-0.9,0.4-1.85,0.26-2.13-0.32c-0.29-0.57,0.22-1.36,1.11-1.76
	C262.08,164.6,263.03,164.74,263.31,165.31L263.31,165.31z"/>
<path fill="#FFFFFF" d="M264.73,168.39c0.28,0.57-0.22,1.36-1.11,1.76c-0.89,0.4-1.85,0.26-2.13-0.32
	c-0.28-0.57,0.22-1.36,1.12-1.76C263.49,167.68,264.45,167.82,264.73,168.39L264.73,168.39z"/>
<path fill="#FFFFFF" d="M266.14,171.47c0.28,0.57-0.22,1.36-1.11,1.76c-0.9,0.4-1.85,0.25-2.13-0.32c-0.28-0.57,0.22-1.36,1.11-1.76
	C264.91,170.75,265.86,170.9,266.14,171.47L266.14,171.47z"/>
<path fill="#FFFFFF" d="M267.56,174.55c0.28,0.58-0.22,1.36-1.12,1.76c-0.89,0.4-1.85,0.25-2.13-0.32
	c-0.28-0.57,0.21-1.36,1.11-1.76C266.33,173.84,267.28,173.98,267.56,174.55L267.56,174.55z"/>
<path fill="#FFFFFF" d="M268.98,177.63c0.28,0.57-0.22,1.36-1.12,1.76c-0.9,0.4-1.85,0.26-2.13-0.32c-0.28-0.57,0.22-1.36,1.11-1.76
	C267.74,176.91,268.69,177.06,268.98,177.63L268.98,177.63z"/>
<path fill="#FFFFFF" d="M270.39,180.71c0.28,0.58-0.22,1.36-1.12,1.76c-0.9,0.4-1.85,0.26-2.13-0.32c-0.28-0.57,0.22-1.36,1.12-1.76
	C269.16,180,270.11,180.14,270.39,180.71L270.39,180.71z"/>
<path fill="#FFFFFF" d="M271.81,183.79c0.28,0.57-0.22,1.36-1.12,1.76c-0.9,0.4-1.85,0.26-2.13-0.31c-0.28-0.58,0.22-1.36,1.11-1.76
	C270.57,183.08,271.53,183.22,271.81,183.79L271.81,183.79z"/>
<path fill="#FFFFFF" d="M273.22,186.87c0.28,0.57-0.22,1.36-1.11,1.76c-0.89,0.4-1.85,0.25-2.13-0.32
	c-0.28-0.57,0.22-1.36,1.11-1.76C271.99,186.16,272.94,186.3,273.22,186.87L273.22,186.87z"/>
<path fill="#FFFFFF" d="M274.64,189.95c0.28,0.57-0.21,1.36-1.11,1.76c-0.89,0.4-1.85,0.26-2.13-0.32
	c-0.28-0.58,0.22-1.36,1.11-1.76C273.4,189.24,274.36,189.38,274.64,189.95L274.64,189.95z"/>
<path fill="#FFFFFF" d="M276.06,193.03c0.28,0.58-0.22,1.36-1.12,1.76c-0.89,0.4-1.85,0.25-2.13-0.32
	c-0.28-0.57,0.22-1.36,1.11-1.76C274.82,192.32,275.78,192.46,276.06,193.03L276.06,193.03z"/>
<path fill="#FFFFFF" d="M277.47,196.11c0.28,0.57-0.22,1.36-1.12,1.76c-0.9,0.4-1.85,0.26-2.13-0.31c-0.28-0.57,0.22-1.36,1.12-1.76
	C276.24,195.4,277.19,195.54,277.47,196.11L277.47,196.11z"/>
<path fill="#FFFFFF" d="M278.89,199.19c0.28,0.57-0.22,1.36-1.11,1.76c-0.9,0.4-1.85,0.26-2.13-0.32c-0.28-0.57,0.22-1.36,1.11-1.76
	C277.65,198.48,278.61,198.62,278.89,199.19L278.89,199.19z"/>
<path fill="#FFFFFF" d="M280.31,202.27c0.28,0.57-0.22,1.36-1.12,1.76c-0.9,0.4-1.85,0.26-2.13-0.32c-0.28-0.57,0.22-1.36,1.12-1.76
	C279.07,201.56,280.02,201.7,280.31,202.27L280.31,202.27z"/>
<path fill="#FFFFFF" d="M281.72,205.35c0.28,0.57-0.22,1.36-1.12,1.76c-0.9,0.4-1.85,0.25-2.13-0.32c-0.28-0.57,0.22-1.36,1.11-1.76
	C280.48,204.64,281.44,204.78,281.72,205.35L281.72,205.35z"/>
<path fill="#FFFFFF" d="M283.14,208.43c0.28,0.58-0.22,1.36-1.12,1.76c-0.89,0.4-1.85,0.26-2.13-0.32
	c-0.28-0.57,0.22-1.36,1.12-1.76C281.9,207.72,282.85,207.86,283.14,208.43L283.14,208.43z"/>
<path fill="#FFFFFF" d="M284.55,211.51c0.28,0.57-0.22,1.36-1.12,1.76c-0.89,0.4-1.85,0.26-2.13-0.32
	c-0.28-0.58,0.22-1.36,1.12-1.76C283.32,210.8,284.27,210.94,284.55,211.51L284.55,211.51z"/>
<path fill="#FFFFFF" d="M285.97,214.59c0.28,0.57-0.22,1.36-1.12,1.76c-0.89,0.4-1.85,0.25-2.13-0.32
	c-0.28-0.57,0.22-1.36,1.12-1.76C284.73,213.88,285.69,214.02,285.97,214.59L285.97,214.59z"/>
<path fill="#FFFFFF" d="M287.38,217.67c0.28,0.57-0.22,1.36-1.11,1.76c-0.89,0.4-1.85,0.26-2.13-0.32
	c-0.28-0.57,0.22-1.36,1.11-1.76C286.15,216.96,287.1,217.1,287.38,217.67L287.38,217.67z"/>
<path fill="#FFFFFF" d="M288.8,220.75c0.28,0.58-0.22,1.36-1.12,1.76c-0.9,0.4-1.85,0.26-2.13-0.32c-0.28-0.57,0.22-1.36,1.11-1.76
	C287.56,220.04,288.52,220.18,288.8,220.75L288.8,220.75z"/>
<path fill="#FFFFFF" d="M290.22,223.83c0.28,0.57-0.22,1.36-1.11,1.76c-0.9,0.4-1.85,0.26-2.13-0.32c-0.28-0.57,0.22-1.36,1.11-1.76
	C288.98,223.12,289.93,223.26,290.22,223.83L290.22,223.83z"/>
<path fill="#FFFFFF" d="M291.63,226.91c0.28,0.57-0.22,1.36-1.12,1.76c-0.89,0.4-1.85,0.26-2.13-0.32
	c-0.28-0.57,0.22-1.36,1.11-1.76C290.4,226.2,291.35,226.34,291.63,226.91L291.63,226.91z"/>
<path fill="#FFFFFF" d="M293.05,229.99c0.28,0.57-0.22,1.36-1.11,1.76c-0.89,0.4-1.85,0.26-2.13-0.32
	c-0.28-0.57,0.22-1.36,1.12-1.76C291.81,229.28,292.76,229.42,293.05,229.99L293.05,229.99z"/>
<path fill="#FFFFFF" d="M291.22,234.51c-0.28-0.57,0.22-1.36,1.12-1.76c0.89-0.4,1.85-0.26,2.13,0.31c0.28,0.58-0.22,1.36-1.12,1.76
	C292.45,235.23,291.5,235.09,291.22,234.51L291.22,234.51z"/>
<g>
	<path fill="#FFFFFF" d="M280.99,250.5c12.04-2.5,24.49-6.74,36.96-13.44c0,0,3.26-7.3,5.75-13.98c0,0-19.41,15.85-52.93,20.54"/>
	<path fill="#FFFFFF" d="M291.38,259.34c6.61-2.06,13.3-4.69,20.04-8.07l5.67-10.25c0,0-11.41,7.88-32.24,12.54"/>
	<path fill="#FFFFFF" d="M269.28,256.08c-22.22,2.34-51.52,0.16-86.58-14.36l3.34,8.85c0,0,39.86,21.32,88.83,12.77"/>
	<path fill="#FFFFFF" d="M299.93,268.09c0.43,0.02,0.69,0.05,0.69,0.05c4.74-6.76,8.31-12.43,8.31-12.43
		c-6.07,2.88-10.89,4.85-14.83,6.26"/>
	<path fill="#FFFFFF" d="M277.23,266.56c-9.72,1.68-26.63,2.74-26.63,2.74c3.65,1.24,12.27,4.66,12.27,4.66
		c9.4,3.42,15.07-0.46,16.7-0.62c0.63-0.25,1.27-0.49,1.91-0.74"/>
	<path fill="#FFFFFF" d="M269.28,256.08c1.95,2.42,3.84,4.89,5.6,7.26"/>
	<path fill="#FFFFFF" d="M280.99,250.5c-3.17-2.42-6.61-4.76-10.22-6.88"/>
	<path fill="#FFFFFF" d="M294.1,261.97c2.38,2.36,4.35,4.47,5.83,6.12"/>
	<path fill="#FFFFFF" d="M266.51,252.72c-2.61-3.08-5.21-5.88-7.58-7.98c-22.39,1.12-49.8-3.04-81.11-18.71l3.26,11.03
		C181.07,237.06,218.87,257.48,266.51,252.72z"/>
	<path fill="#FFFFFF" d="M291.38,259.34c-1.98-1.87-4.16-3.82-6.53-5.78"/>
	<path fill="#FFFFFF" d="M303.53,272.34l0.12,0.16l-0.7,0.62c-0.25,0.22-6.15,5.27-18.13,3.79l-0.46-0.06l-0.25-0.38
		c-0.02-0.03-0.27-0.41-0.64-0.95c-1.22,0.47-2.5,0.96-3.91,1.54c0,0-8.08,4.04-16.7,0.62l-12.89-4.97c0,0-2.49-1.24-8.62-1.24
		c0,0-4.35-0.62-16.08,4.97c0,0-6.14,3.11-11.65,2.41c0,0-4.35-0.55-8.7-2.41c-1.79-0.62-12.28-6.21-24-6.21c0,0-6.21,0-17.87,3.11
		v10.49c0,0,11.65-3.11,17.87-3.11c0,0,11.11,0,24,6.21c4.35,1.87,8.7,2.41,8.7,2.41s3.03,1.24,11.65-2.41
		c0,0,11.11-5.59,16.08-4.97c0,0,6.14,0,8.62,1.24c0,0,11.73,4.43,11.96,4.58c-0.23-0.16,7.84,4.2,17.71-0.23
		c5.59-2.49,15.3-5.59,14.06-4.97c0,0,6.22-1.48,12.97,1.24c0,0,5.75,2.02,11.73,3.73l6.14-9.86c0,0-2.95,0.93-17.87-4.35
		C306.1,273.33,305.22,272.8,303.53,272.34z"/>
	<path fill="#FFFFFF" d="M277.23,266.56c1.67,2.32,3.11,4.38,4.25,6.04"/>
</g>
<path fill="#FFFFFF" d="M260.73,240.74c20.5,8.51,37.03,27.71,40.13,31.45c-1.83,1.17-6.93,3.71-15.36,2.78
	c-1.79-2.71-18.61-27.88-28.73-34.3C257.1,240.48,258.05,240.18,260.73,240.74z"/>
<path fill="#FFFFFF" stroke="#FFFFFF" stroke-width="1.0015" d="M72.47,145.59l-1.82-1.87c2.11-3.93,0.79-4.66-11.93-11.71
	c-14.9-8.26-15.86-8.79-18.69-4.66l-1.86-2.03c0.62-1.11,1.72-2.62,3.35-5.56c1.63-2.94,2.75-5.44,3.56-6.9
	c4.58-8.26,11.5-5.69,13.43-4.62c2.89,1.6,5.49,5.16,4.47,9.5c4.31-5.5,10.47-4.67,13.46-3.01c3.2,1.77,9.28,6.93,3.29,17.73
	L72.47,145.59L72.47,145.59z M74.52,134.6c0.85-1.19,1.99-2.74,2.83-4.26c3.35-6.03-2.17-9.48-3.38-10.16
	c-7.5-4.16-10.82,1.82-12.67,5.17c-0.34,0.61-0.62,1.24-0.91,1.88C67.89,131.39,72.19,133.31,74.52,134.6L74.52,134.6z
	 M57.22,125.41c0.4-0.71,0.84-1.39,1.23-2.1c3.68-6.64-0.45-9.46-2.18-10.42c-2.84-1.57-6.59-1.86-9.14,2.75
	c-1.04,1.88-1.09,3.04,0.5,4.12c1.08,0.8,4.8,2.93,5.72,3.43L57.22,125.41L57.22,125.41z M102.91,99.7l-1.02-2.41
	c2.6-2.57,2.14-3.63-1.38-7.86c-1.56-1.79-3.59-4.4-6.56-7.82c-3.8-4.37-6.51-7.39-8.27-9.24c-2.37-2.55-3.82-3.59-7-0.9l-1.05-2.54
	c1.09-0.87,2.82-2.15,4.92-3.97c2.32-2.02,4.53-4.24,6.85-6.26c5.29-4.6,10.75-3.36,13.99,0.36c4.6,5.29,2.13,11.2-0.45,13.45
	c2.15-0.88,3.22-1.42,8.73,0.86l5.39,2.23c5.87,2.42,6.57,2.43,9.82-0.01l0.94,2.49l-6.3,5.48L110.57,79
	c-8.82-3.7-9.35-3.78-12.79-0.94c0.27,0.31,0.73,0.83,1.1,1.27c2.2,2.54,4.04,4.47,5.42,5.96c3.33,3.48,5.28,5.01,10.38,0.81
	l0.93,2.57L102.91,99.7L102.91,99.7z M95.48,75.6c0.82-0.56,1.63-1.03,2.38-1.68c1.66-1.45,6.27-5.6,1.7-10.85
	c-3.12-3.59-6.52-3.17-9.67-0.43c-2.32,2.02-2.37,3.29-0.71,5.46c0.79,1,1.89,2.35,3.26,3.92L95.48,75.6L95.48,75.6z M151.83,65.45
	l-0.11-2.58c2.18-0.95,3.29-1.45,2.28-4.73c-0.78-2.56-2.56-7.28-5.84-15.39c-1.61-3.98-2.81-6.8-3.67-8.77
	c-1.93-4.47-2.7-4.22-6.1-3.03l-0.04-2.74l12.47-5.04l0.11,2.58c-2.69,1.08-2.89,1.98-1.32,6.47c1.04,3.21,2.81,7.74,5.12,13.44
	c2.15,5.32,3.58,8.56,4.58,10.4c1.37,2.45,2.76,2.2,5.92,1.36l0.05,2.6L151.83,65.45L151.83,65.45z M204.96,52.68
	c-2.66,0.14-9.86,0.05-10.79,0.1l-0.62-11.75l3.54-2.1c0.03,0.52,0.06,1.04,0.08,1.57c0.35,6.6,1.66,8.44,9.19,8.05
	c1.45-0.08,3.76-0.2,5.07-1.72c0.88-0.97,1.66-2.7,1.53-5.13c-0.5-9.49-20.07-7.54-20.66-18.82c-0.21-3.99,1.65-10.65,12.53-11.22
	c2.95-0.16,8.24-0.03,10.09-0.07l0.49,9.43l-3.33,1.86c-0.02-0.46-0.05-0.98-0.08-1.45c-0.26-4.98-2.02-6.39-7.17-6.12
	c-1.33,0.07-7.12,0.38-6.83,5.99c0.44,8.45,19.87,6.97,20.49,18.89c0.26,4.92-1.76,7.4-3.47,9.06
	C212.07,52.19,207.97,52.52,204.96,52.68L204.96,52.68z M252.69,55.33l1.29-1.9c4.87,1.34,5.72,0.4,7.57-4.55
	c1.08-2.76,2.62-6.95,4.58-12.95c1.31-4.02,3.36-10.55,4.02-13.14c-6.23-2.03-9.48-3.08-11.98,3.3l-3.52,0.14l3.5-10.75l31.31,10.17
	l-3.03,9.32l-3.52,0.13c1.72-5.29,1.42-7.76-5.35-9.97c-0.66-0.21-1.28-0.36-1.96-0.52c-1.35,3.95-3.42,9.98-4.57,13.51
	c-1.93,5.95-3.08,10.21-3.85,12.95c-1.61,5.51,0.12,6.38,4.67,8.16l-1.45,1.84L252.69,55.33L252.69,55.33z M310.68,84.06
	c-5.16-4.03-13.19-14.28-1.84-28.8c2.92-3.75,7.64-6.39,12.81-6.98c5.33-0.7,10.33,0.43,15.68,4.6c9.77,7.64,10.55,17.37,2.81,27.28
	C332.21,90.29,319.04,90.58,310.68,84.06L310.68,84.06z M314.36,57.22c-2.96,3.79-10.9,14.51,0.89,23.71
	c3.52,2.75,7.1,4.37,10.64,3.9c1.95-0.24,3.9-0.48,8.47-6.33c8.71-11.14,4.79-18.47-1.28-23.21c-3.34-2.61-6.55-4.23-9.48-3.87
	C320.41,52.02,317.36,53.38,314.36,57.22L314.36,57.22z M345.61,118.46l2.6-0.45c1.77,3.19,3.69,2.13,8.37-0.2
	c1.12-0.62,2.36-1.24,3.88-2.08c6.69-3.71,11.31-6.27,14.19-8c4.68-2.79,5.36-3.37,3.3-7.8l2.42-0.41l7.89,14.25l-2.48,0.31
	c-3.05-4.67-3.05-4.67-14.61,1.74c-4.31,2.39-15.2,8.69-17.28,9.84c0.83,1.86,1.16,2.81,2.62,5.44c2.58,4.66,4.96,6.79,11.19,3.33
	l2.16,2.45l-10.75,5.96L345.61,118.46L345.61,118.46z"/>
<path fill="#FFFFFF" stroke="#FFFFFF" stroke-width="1.0015" d="M20.62,251.78c-1.94-10.99,4.5-19.54,16.37-21.64
	c10.04-1.77,21.75,1.89,24.16,15.55c0.58,3.29,0.72,5.43,0.91,8.15l-10.25,1.92l-1.78-2.76c3.65-0.64,7.72-1.25,6.6-7.63
	c-0.73-4.11-2.47-7.3-4.62-8.82c-1.15-0.86-7.5-2.18-12.81-1.24c-10.73,1.89-14.9,7.61-13.22,17.16c0.77,4.37,1.74,6.21,3.14,8.82
	l-4.84-0.1C22.69,258.2,21.51,256.87,20.62,251.78L20.62,251.78z M30.82,284.29l2.55-0.23c0.89,1.95,1.37,2.93,4.62,1.83
	c2.53-0.85,7.22-2.72,15.27-6.14c3.95-1.68,6.75-2.92,8.71-3.81c4.44-2,4.21-2.7,3.1-5.74l2.7-0.18l4.73,11.14l-2.55,0.23
	c-1.02-2.4-1.9-2.54-6.35-0.87c-3.18,1.12-7.68,2.97-13.33,5.38c-5.28,2.24-8.5,3.72-10.33,4.72c-2.44,1.38-2.21,2.64-1.45,5.49
	l-2.56,0.18L30.82,284.29L30.82,284.29z M51.18,323.45l2.12-0.83c2.86,3.54,4.07,3.23,8.46,0.3c2.48-1.61,6.19-4.1,11.29-7.82
	c3.42-2.49,8.93-6.55,10.99-8.24c-3.46-4.77-5.27-7.26-11.02-3.54l-2.73-1.69l9.14-6.64l17.41,23.97l-7.92,5.76l-2.73-1.69
	c4.5-3.27,5.78-5.36,2.01-10.55c-0.37-0.51-0.75-0.94-1.17-1.41c-3.41,2.41-8.63,6.07-11.63,8.25c-5.06,3.68-8.5,6.44-10.74,8.19
	c-4.55,3.5-3.77,5.06-1.43,8.78l-2.21,0.7L51.18,323.45L51.18,323.45z M89.07,364.17l1.91-1.63c3.59,2.51,5.36,0.35,7.52-2.73
	l5.88-8.4l0.92-12.23c0.58-6.74,0.56-8.17-2.13-10.33l2.1-1.64l14.15,9.9l-2.07,1.59c-0.38-0.27-0.77-0.54-1.15-0.81
	c-1.11-0.78-3.5-2.45-5.07-0.22c-0.83,1.19-1.1,3.12-1.41,6.02l-0.74,6.7c6.17-3.18,11.61-6.02,15.65-9.34l6.52,2.87
	c-5.59,2.52-10.16,4.06-17.54,7.67c-1.69,0.87-3.39,1.66-5.05,2.48l-6.28,8.97c-3.09,4.42-2.24,5.65,1.31,8.13l-2.22,1.63
	L89.07,364.17L89.07,364.17z M176.93,403.61c-10.92-2.32-16.43-11.49-13.93-23.28c2.12-9.98,9.9-19.46,23.47-16.58
	c3.27,0.69,5.31,1.37,7.9,2.21l-2.07,10.23l-3.22,0.62c0.77-3.63,1.73-7.63-4.6-8.98c-4.08-0.87-7.69-0.45-9.91,0.97
	c-1.23,0.75-4.83,6.14-5.95,11.42c-2.27,10.66,1.47,16.67,10.96,18.68c4.34,0.92,6.41,0.71,9.36,0.39l-1.91,4.45
	C183.65,404.09,181.98,404.68,176.93,403.61L176.93,403.61z M227.18,409.15c-5.89,0-17.27-3.13-17.27-21.56
	c0-4.75,1.88-9.74,5.22-13.39c3.39-3.83,7.56-6.03,13.67-6.03c11.16,0,17.11,7.19,17.11,19.76
	C245.9,400.8,236.72,409.15,227.18,409.15L227.18,409.15z M214.92,385.73c0,4.81,0.32,18.14,13.77,18.14c4.02,0,7.46-0.93,9.7-3.48
	c1.25-1.39,2.5-2.78,2.5-10.2c0-14.14-6.83-17.5-13.77-17.5c-3.81,0-6.99,0.69-8.87,2.78C216.33,377.91,214.92,380.87,214.92,385.73
	L214.92,385.73z M285.65,398.4c-11.86,4.32-15.3-4.67-17.93-11.73l-4.41-11.96c-2.11-5.95-2.62-7.19-5.83-6.27l-0.27-2.55
	l14.31-5.21l0.05,2.57c-5.32,2.31-5.72,3.19-3.93,8.71c1.04,3.32,2.68,8.28,5.45,15.9c0.99,2.72,3.65,10.02,11.2,7.27
	c3.32-1.08,5.22-3.5,5.74-4.8c0.9-2.42,1.04-2.35-3.8-15.64c-1.94-5.33-3.22-8.39-4.23-10.55c-1.71-3.64-3.06-3.39-5.85-2.5
	l-0.12-2.61l10.79-3.92l0.1,2.43c-2.05,1.24-2.56,2.1-0.92,6.63c1.59,4.36,5.66,15.09,7.02,18.85
	C295.28,389.16,292.81,395.79,285.65,398.4L285.65,398.4z M321.21,380.85l-0.92-2.37c2.79-2.69,1.42-4.86-7.85-16.74
	c-9.17-11.74-9.92-12.7-14.17-10.26l-0.85-2.28l5.55-4.33c7.91,3.09,25.58,8.77,34.01,10.57l-4.63-6.01
	c-0.74-1.04-1.96-2.59-2.96-3.87c-1.93-2.47-3.58-4.41-4.87-5.98c-2.59-2.98-5.95-3.81-10.71-0.24l-0.77-2.34l12-9.38l0.92,2.45
	c-2.37,2.81-2.23,2.99,9.76,18.34c3.25,4.15,6.73,8.35,10.06,12.44l-1.65,2.97c-5.35-1.85-10.65-3.81-16.06-5.4l-18.43-5.46
	c1.03,1.32,2.1,2.69,3.18,4.06l2.92,3.75c9.1,11.65,10.01,12.48,16.53,8.19l0.91,2.52L321.21,380.85L321.21,380.85z M377.17,326.42
	c-6.41,9.14-17,10.64-26.88,3.72c-8.36-5.85-14.05-16.72-6.09-28.08c1.92-2.73,3.33-4.35,5.13-6.41l8.61,5.9l-0.69,3.21
	c-3.04-2.13-6.35-4.57-10.06,0.73c-2.39,3.42-3.42,6.9-2.98,9.51c0.21,1.42,3.77,6.84,8.19,9.93c8.93,6.25,15.92,5.16,21.48-2.79
	c2.54-3.63,3.16-5.62,4.01-8.46l3.36,3.5C380.24,320.42,380.13,322.19,377.17,326.42L377.17,326.42z M393.75,296.7l-1.9-1.7
	c0.82-1.98,1.21-3-1.81-4.63c-2.35-1.27-6.92-3.42-14.91-6.98c-3.92-1.74-6.75-2.95-8.72-3.77c-4.49-1.88-4.84-1.24-6.31,1.64
	l-1.97-1.85l4.92-11.05l1.9,1.71c-1.06,2.38-0.56,3.12,3.7,5.24c2.99,1.56,7.41,3.59,13.03,6.08c5.24,2.33,8.51,3.67,10.5,4.33
	c2.67,0.85,3.44-0.18,5-2.68l1.88,1.75L393.75,296.7L393.75,296.7z M407.68,260.82l-2.32-1.21c0.57-3.23-1.6-3.62-6.7-4.73
	c-1.25-0.22-2.62-0.51-4.33-0.82c-7.54-1.33-12.73-2.24-16.06-2.73c-5.39-0.79-6.27-0.79-7.38,3.47l-2.16-1.12l2.55-14.43l2.14,1.23
	c-0.47,5-0.47,5,12.55,7.29c4.85,0.85,17.27,2.83,19.61,3.25c0.48-1.77,0.81-2.61,1.28-5.28c0.83-4.72,0.28-7.58-6.75-8.81
	l-0.19-2.95l12.1,2.13L407.68,260.82L407.68,260.82z"/>
<path fill="#FFFFFF" stroke="#FFFFFF" stroke-width="1.0015" d="M36.66,179.89c0-3.02,2.45-5.46,5.46-5.46
	c3.02,0,5.47,2.45,5.47,5.46c0,3.02-2.45,5.47-5.47,5.47C39.1,185.35,36.66,182.91,36.66,179.89L36.66,179.89z"/>
<path fill="#FFFFFF" stroke="#FFFFFF" stroke-width="1.0015" d="M384.61,179.94c0-3.02,2.44-5.46,5.46-5.46
	c3.02,0,5.46,2.45,5.46,5.46c0,3.02-2.45,5.46-5.46,5.46C387.06,185.4,384.61,182.95,384.61,179.94L384.61,179.94z"/>
</svg>
